<?xml version="1.0" encoding="UTF-8"?>
<svg xmlns="http://www.w3.org/2000/svg" viewBox="0 0 500 500">
  <defs>
    <style>
      .cls-1 {
        fill: #3128a0;
      }

      .cls-1, .cls-2 {
        stroke-width: 0px;
      }

      .cls-2 {
        fill: #e7c400;
      }
    </style>
  </defs>
  <g id="R">
    <g>
      <g>
        <rect class="cls-1" x="275.02" y="262" width="78" height="12" rx="1.17" ry="1.17"/>
        <rect class="cls-1" x="275.02" y="262" width="15" height="36" rx="1.17" ry="1.17"/>
      </g>
      <g>
        <rect class="cls-1" x="275.02" y="313" width="78" height="12" rx="1.17" ry="1.17"/>
        <rect class="cls-1" x="275.02" y="313" width="15" height="36" rx="1.17" ry="1.17"/>
      </g>
      <rect class="cls-1" x="275.02" y="365" width="78" height="12" rx="1.17" ry="1.17"/>
    </g>
    <g>
      <rect class="cls-1" x="147.02" y="262" width="13" height="116" rx="1.85" ry="1.85"/>
      <path class="cls-1" d="M159.23,321.97l-11.64,10.73c-1.27,1.17-.44,3.3,1.29,3.3h23.27c1.73,0,2.56-2.12,1.29-3.3l-11.64-10.73c-.73-.67-1.85-.67-2.58,0Z"/>
      <path class="cls-1" d="M156.93,320.98c.14.23.32.45.52.63.12.11.24.21.35.34l-.23-.3c.12.16.21.34.31.51.16.27.35.51.55.76.25.31.53.6.77.91l-.23-.3c.09.11.17.23.24.35.2.33.53.59.9.69s.84.05,1.16-.15.6-.51.69-.9.06-.81-.15-1.16c-.36-.59-.86-1.07-1.28-1.61l.23.3c-.21-.27-.34-.58-.54-.85-.15-.22-.32-.43-.52-.61-.13-.11-.25-.22-.36-.35l.23.3s-.03-.05-.05-.08c-.21-.33-.52-.59-.9-.69s-.84-.05-1.16.15-.6.51-.69.9-.07.81.15,1.16h0Z"/>
      <path class="cls-1" d="M156.99,320.3c.08.16.16.33.23.49l-.15-.36c.26.61.47,1.25.79,1.84.35.65.89,1.27,1.56,1.61.36.18.75.26,1.16.15.35-.1.73-.36.9-.69.18-.35.28-.77.15-1.16-.12-.36-.34-.72-.69-.9-.12-.06-.23-.13-.33-.21l.3.23c-.15-.12-.29-.26-.4-.41l.23.3c-.24-.31-.41-.66-.56-1.02l.15.36c-.25-.59-.45-1.2-.75-1.76-.17-.32-.55-.59-.9-.69s-.84-.05-1.16.15c-.71.46-.93,1.31-.54,2.05h0Z"/>
      <rect class="cls-1" x="147.02" y="262" width="86" height="13" rx="2.73" ry="2.73"/>
      <rect class="cls-1" x="189.52" y="292.5" width="74" height="13" rx="2.73" ry="2.73" transform="translate(-72.48 525.52) rotate(-90)"/>
      <path class="cls-1" d="M236.44,373.7l-65.59-60.47c-.73-.67-1.85-.67-2.58,0l-10.48,9.67,58.68,54.11h18.68c1.73,0,2.56-2.12,1.29-3.3Z"/>
      <path class="cls-1" d="M232.17,331.29l-68.67-63.09c-1.04-.96-2.64-.96-3.69,0l-10.25,9.42c-.29.27-.29.73,0,1l62.26,57.21c.13.12.29.18.46.18h18.04c2.47,0,3.66-3.04,1.84-4.71Z"/>
    </g>
  </g>
  <g id="C">
    <g>
      <polygon class="cls-2" points="289.04 165.35 289.04 195.85 315.45 211.1 341.86 195.85 341.86 165.35 315.45 150.1 289.04 165.35"/>
      <path class="cls-2" d="M315.17,120.97l-51.5,29.73v59.47l51.5,29.73,51.5-29.73v-59.47l-51.5-29.73ZM353.42,203.03l-38.58,22.28-38.58-22.28v-44.55l38.58-22.28,38.58,22.28v44.55Z"/>
    </g>
    <g>
      <path class="cls-1" d="M146.76,171.1c.92,0,1.7-.66,1.87-1.57,4.01-20.84,20.18-36.43,39.54-36.43,12.99,0,24.55,7.03,31.96,17.96.57.84,1.73,1.06,2.59.51l8.91-5.74c.93-.6,1.14-1.85.49-2.74-10.15-13.98-26.05-22.99-43.95-22.99-27.36,0-50.09,21.06-54.65,48.76-.19,1.17.69,2.24,1.87,2.24h11.37Z"/>
      <path class="cls-1" d="M223.82,205.65c-.89-.49-2-.17-2.54.7-7.33,11.94-19.43,19.75-33.12,19.75-19.95,0-36.52-16.56-39.87-38.36-.14-.94-.93-1.64-1.88-1.64h-11.18c-1.17,0-2.05,1.04-1.88,2.2,4.16,28.21,27.11,49.8,54.81,49.8,18.65,0,35.15-9.79,45.21-24.8.63-.94.34-2.21-.65-2.75l-8.91-4.9Z"/>
    </g>
  </g>
</svg>